<svg xmlns="http://www.w3.org/2000/svg" viewBox="0 0 480.82323 473.25521"><defs><style>.cls-1{fill:#e53835;}.cls-1,.cls-2,.cls-3,.cls-4,.cls-5,.cls-6,.cls-7{stroke:#1d1d1b;stroke-miterlimit:10;}.cls-2{fill:#3c5fa9;}.cls-3{fill:#0597a7;}.cls-4{fill:#b55fa1;}.cls-5{fill:#fbc02d;}.cls-6{fill:#7cb340;}.cls-7{fill:#ef7c0f;stroke-width:1.00613px;}</style></defs><title>camel</title><g id="Layer_2" data-name="Layer 2"><g id="Layer_1-2" data-name="Layer 1"><polygon class="cls-1" points="219.394 253.874 219.394 253.874 3.394 253.874 3.394 469.874 219.394 253.874"/><polygon class="cls-2" points="317.548 166.578 317.548 166.578 164.813 319.313 317.548 472.048 317.548 166.578"/><polygon class="cls-3" points="326.881 0.5 326.881 0.5 403.249 76.868 479.616 0.5 326.881 0.5"/><polygon class="cls-4" points="323.881 317.57 323.881 317.57 400.249 241.203 323.881 164.835 323.881 317.57"/><rect class="cls-5" x="174.03125" y="112.00543" width="108" height="108" transform="translate(271.89013 444.63145) rotate(-135)"/><polygon class="cls-6" points="217.582 245.925 217.582 245.925 109.394 137.737 1.207 245.925 217.582 245.925"/><polygon class="cls-7" points="399.07 81.377 399.07 232.886 325.06 158.326 325.06 6.817 399.07 81.377"/></g></g></svg>