<svg xmlns="http://www.w3.org/2000/svg" viewBox="0 0 445.76059 562.654"><defs><style>.cls-1{fill:#e53835;}.cls-1,.cls-2,.cls-3,.cls-4,.cls-5,.cls-6,.cls-7{stroke:#1d1d1b;stroke-miterlimit:10;}.cls-2{fill:#3c5fa9;}.cls-3{fill:#0597a7;}.cls-4{fill:#b55fa1;}.cls-5{fill:#fbc02d;}.cls-6{fill:#7cb340;}.cls-7{fill:#ef7c0f;stroke-width:1.00613px;}</style></defs><title>cat</title><g id="Layer_2" data-name="Layer 2"><g id="Layer_1-2" data-name="Layer 1"><polygon class="cls-1" points="116.473 248.105 116.473 248.105 269.209 400.84 116.473 553.576 116.473 248.105"/><polygon class="cls-2" points="332.779 346.154 332.779 346.154 332.779 562.154 116.779 562.154 332.779 346.154"/><polygon class="cls-3" points="193.079 153.942 193.079 153.942 116.712 77.575 193.079 1.207 193.079 153.942"/><polygon class="cls-4" points="33.868 1.207 33.868 1.207 110.235 77.575 33.868 153.942 33.868 1.207"/><rect class="cls-5" x="58.23521" y="104.58556" width="108" height="108" transform="translate(-79.26399 125.81092) rotate(-45)"/><polygon class="cls-6" points="108.894 469.909 108.894 469.909 0.707 361.722 108.894 253.535 108.894 469.909"/><polygon class="cls-7" points="444.865 454.115 337.732 561.248 338.12 456.193 445.253 349.06 444.865 454.115"/></g></g></svg>