<svg xmlns="http://www.w3.org/2000/svg" viewBox="0 0 606.16207 376.80086"><defs><style>.cls-1{fill:#e53835;}.cls-1,.cls-2,.cls-3,.cls-4,.cls-5,.cls-6,.cls-7{stroke:#1d1d1b;stroke-miterlimit:10;}.cls-2{fill:#3c5fa9;}.cls-3{fill:#0597a7;}.cls-4{fill:#b55fa1;}.cls-5{fill:#fbc02d;}.cls-6{fill:#7cb340;}.cls-7{fill:#ef7c0f;stroke-width:1.00613px;}</style></defs><title>fish</title><g id="Layer_2" data-name="Layer 2"><g id="Layer_1-2" data-name="Layer 1"><polygon class="cls-1" points="0.5 53.85 0.5 53.85 153.235 206.585 0.5 359.32 0.5 53.85"/><polygon class="cls-2" points="604.955 217.207 604.955 217.207 388.955 217.207 388.955 1.207 604.955 217.207"/><polygon class="cls-3" points="380.694 206.585 380.694 206.585 380.694 314.585 272.694 314.585 380.694 206.585"/><polygon class="cls-4" points="273.454 194.416 273.454 194.416 273.454 86.416 381.454 86.416 273.454 194.416"/><rect class="cls-5" x="158.09116" y="144.41608" width="108" height="108"/><polygon class="cls-6" points="388.955 375.594 388.955 375.594 388.955 222.594 541.955 222.594 388.955 375.594"/><polygon class="cls-7" points="379.827 199.867 272.694 307 273.082 201.945 380.215 94.812 379.827 199.867"/></g></g></svg>