<svg xmlns="http://www.w3.org/2000/svg" viewBox="0 0 555.84948 564.65506"><defs><style>.cls-1{fill:#e53835;}.cls-1,.cls-2,.cls-3,.cls-4,.cls-5,.cls-6,.cls-7{stroke:#1d1d1b;stroke-miterlimit:10;}.cls-2{fill:#3c5fa9;}.cls-3{fill:#0597a7;}.cls-4{fill:#b55fa1;}.cls-5{fill:#fbc02d;}.cls-6{fill:#7cb340;}.cls-7{fill:#ef7c0f;stroke-width:1.00613px;}</style></defs><title>kangaroo</title><g id="Layer_2" data-name="Layer 2"><g id="Layer_1-2" data-name="Layer 1"><polygon class="cls-1" points="227.289 263.665 227.289 263.665 443.289 263.665 443.289 47.665 227.289 263.665"/><polygon class="cls-2" points="443.289 267.773 443.289 267.773 227.289 267.773 227.289 483.773 443.289 267.773"/><polygon class="cls-3" points="448.546 418.766 448.546 418.766 524.914 342.398 448.546 266.031 448.546 418.766"/><polygon class="cls-4" points="446.642 1.207 446.642 1.207 446.642 109.207 554.642 109.207 446.642 1.207"/><rect class="cls-5" x="293.64067" y="397.78715" width="108" height="108" transform="translate(273.99799 1017.06798) rotate(-135)"/><polygon class="cls-6" points="374.447 564.155 374.447 564.155 266.259 455.968 158.072 564.155 374.447 564.155"/><polygon class="cls-7" points="75.78 487.145 227.289 487.145 152.73 561.155 1.221 561.155 75.78 487.145"/></g></g></svg>