<svg xmlns="http://www.w3.org/2000/svg" viewBox="0 0 611.09279 316.62951"><defs><style>.cls-1{fill:#e53835;}.cls-1,.cls-2,.cls-3,.cls-4,.cls-5,.cls-6,.cls-7{stroke:#1d1d1b;stroke-miterlimit:10;}.cls-2{fill:#3c5fa9;}.cls-3{fill:#0597a7;}.cls-4{fill:#b55fa1;}.cls-5{fill:#fbc02d;}.cls-6{fill:#7cb340;}.cls-7{fill:#ef7c0f;stroke-width:1.00613px;}</style></defs><title>bear</title><g id="Layer_2" data-name="Layer 2"><g id="Layer_1-2" data-name="Layer 1"><polygon class="cls-1" points="153.442 306.677 153.442 306.677 0.707 153.942 153.442 1.207 153.442 306.677"/><polygon class="cls-2" points="158.945 217.769 158.945 217.769 158.945 1.769 374.945 1.769 158.945 217.769"/><polygon class="cls-3" points="150.746 316.13 150.746 316.13 42.746 316.13 42.746 208.13 150.746 316.13"/><polygon class="cls-4" points="609.886 109.487 609.886 109.487 501.886 109.487 501.886 1.487 609.886 109.487"/><rect class="cls-5" x="384.41517" y="1.48688" width="108" height="108"/><polygon class="cls-6" points="380.415 2.977 380.415 2.977 380.415 155.977 227.415 155.977 380.415 2.977"/><polygon class="cls-7" points="381.454 266.096 274.321 158.964 379.376 159.352 486.509 266.485 381.454 266.096"/></g></g></svg>