<svg xmlns="http://www.w3.org/2000/svg" viewBox="0 0 596.83214 325.49013"><defs><style>.cls-1{fill:#e53835;}.cls-1,.cls-2,.cls-3,.cls-4,.cls-5,.cls-6,.cls-7{stroke:#1d1d1b;stroke-miterlimit:10;}.cls-2{fill:#3c5fa9;}.cls-3{fill:#0597a7;}.cls-4{fill:#b55fa1;}.cls-5{fill:#fbc02d;}.cls-6{fill:#7cb340;}.cls-7{fill:#ef7c0f;stroke-width:1.00613px;}</style></defs><title>dog</title><g id="Layer_2" data-name="Layer 2"><g id="Layer_1-2" data-name="Layer 1"><polygon class="cls-1" points="487.269 107.313 487.269 107.313 487.269 323.313 271.269 323.313 487.269 107.313"/><polygon class="cls-2" points="418.97 172.048 418.97 172.048 266.235 324.783 113.5 172.048 418.97 172.048"/><polygon class="cls-3" points="0.5 122.481 0.5 122.481 0.5 14.481 108.5 14.481 0.5 122.481"/><polygon class="cls-4" points="117 14.481 117 14.481 225 14.481 225 122.481 117 14.481"/><rect class="cls-5" x="58.5" y="37.68046" width="108" height="108" transform="translate(-31.87738 106.4021) rotate(-45)"/><polygon class="cls-6" points="46.86 324.783 46.86 324.783 155.048 216.596 263.235 324.783 46.86 324.783"/><polygon class="cls-7" points="595.936 106.274 488.803 213.407 489.192 108.352 596.325 1.219 595.936 106.274"/></g></g></svg>