<svg xmlns="http://www.w3.org/2000/svg" viewBox="0 0 468.77621 468.98486"><defs><style>.cls-1{fill:#e53835;}.cls-1,.cls-2,.cls-3,.cls-4,.cls-5,.cls-6,.cls-7{stroke:#1d1d1b;stroke-miterlimit:10;}.cls-2{fill:#3c5fa9;}.cls-3{fill:#0597a7;}.cls-4{fill:#b55fa1;}.cls-5{fill:#fbc02d;}.cls-6{fill:#7cb340;}.cls-7{fill:#ef7c0f;stroke-width:1.00613px;}</style></defs><title>duck</title><g id="Layer_2" data-name="Layer 2"><g id="Layer_1-2" data-name="Layer 1"><polygon class="cls-1" points="231.467 172.075 231.467 172.075 231.467 388.075 15.467 388.075 231.467 172.075"/><polygon class="cls-2" points="236.467 84.654 236.467 84.654 389.202 237.389 236.467 390.124 236.467 84.654"/><polygon class="cls-3" points="314.834 160.378 314.834 160.378 391.202 84.011 467.569 160.378 314.834 160.378"/><polygon class="cls-4" points="160.099 468.485 160.099 468.485 236.467 392.117 312.834 468.485 160.099 468.485"/><rect class="cls-5" x="258.83404" y="23.07464" width="108" height="108" transform="translate(37.12697 243.78171) rotate(-45)"/><polygon class="cls-6" points="14.467 165.385 14.467 165.385 122.654 273.572 14.467 381.76 14.467 165.385"/><polygon class="cls-7" points="152.73 467.306 1.221 467.306 75.78 393.296 227.289 393.296 152.73 467.306"/></g></g></svg>