<svg xmlns="http://www.w3.org/2000/svg" viewBox="0 0 610.90245 558.09721"><defs><style>.cls-1{fill:#e53835;}.cls-1,.cls-2,.cls-3,.cls-4,.cls-5,.cls-6,.cls-7{stroke:#1d1d1b;stroke-miterlimit:10;}.cls-2{fill:#3c5fa9;}.cls-3{fill:#0597a7;}.cls-4{fill:#b55fa1;}.cls-5{fill:#fbc02d;}.cls-6{fill:#7cb340;}.cls-7{fill:#ef7c0f;stroke-width:1.00613px;}</style></defs><title>horse</title><g id="Layer_2" data-name="Layer 2"><g id="Layer_1-2" data-name="Layer 1"><polygon class="cls-1" points="297.31 446.597 297.31 446.597 297.31 230.597 81.31 230.597 297.31 446.597"/><polygon class="cls-2" points="303.412 540.328 303.412 540.328 456.147 387.593 303.412 234.858 303.412 540.328"/><polygon class="cls-3" points="189.31 557.597 189.31 557.597 297.31 557.597 297.31 449.597 189.31 557.597"/><polygon class="cls-4" points="153.942 308.226 153.942 308.226 77.575 231.858 1.207 308.226 153.942 308.226"/><rect class="cls-5" x="189.3097" y="114.24583" width="108" height="108" transform="translate(486.6194 336.49165) rotate(-180)"/><polygon class="cls-6" points="297.497 108.894 297.497 108.894 189.31 0.707 81.122 108.894 297.497 108.894"/><polygon class="cls-7" points="458.173 394.078 609.682 394.078 535.122 468.089 383.613 468.089 458.173 394.078"/></g></g></svg>