<svg xmlns="http://www.w3.org/2000/svg" viewBox="0 0 396.03126 501.09086"><defs><style>.cls-1{fill:#e53835;}.cls-1,.cls-2,.cls-3,.cls-4,.cls-5,.cls-6,.cls-7{stroke:#1d1d1b;stroke-miterlimit:10;}.cls-2{fill:#3c5fa9;}.cls-3{fill:#0597a7;}.cls-4{fill:#b55fa1;}.cls-5{fill:#fbc02d;}.cls-6{fill:#7cb340;}.cls-7{fill:#ef7c0f;stroke-width:1.00613px;}</style></defs><title>mouse</title><g id="Layer_2" data-name="Layer 2"><g id="Layer_1-2" data-name="Layer 1"><polygon class="cls-1" points="315.422 194.69 315.422 194.69 162.687 347.425 9.952 194.69 315.422 194.69"/><polygon class="cls-2" points="89.354 425.039 89.354 425.039 242.089 272.304 394.824 425.039 89.354 425.039"/><polygon class="cls-3" points="331.912 4.199 331.912 4.199 331.912 112.199 223.912 112.199 331.912 4.199"/><polygon class="cls-4" points="218.093 108.5 218.093 108.5 218.093 0.5 326.093 0.5 218.093 108.5"/><rect class="cls-5" x="0.5" y="2.34947" width="108" height="108"/><polygon class="cls-6" points="54.5 186.811 54.5 186.811 162.687 78.623 270.875 186.811 54.5 186.811"/><polygon class="cls-7" points="240.863 500.588 89.354 500.588 163.914 426.577 315.422 426.577 240.863 500.588"/></g></g></svg>