<svg xmlns="http://www.w3.org/2000/svg" viewBox="0 0 591.57632 474.06548"><defs><style>.cls-1{fill:#e53835;}.cls-1,.cls-2,.cls-3,.cls-4,.cls-5,.cls-6,.cls-7{stroke:#1d1d1b;stroke-miterlimit:10;}.cls-2{fill:#3c5fa9;}.cls-3{fill:#0597a7;}.cls-4{fill:#b55fa1;}.cls-5{fill:#fbc02d;}.cls-6{fill:#7cb340;}.cls-7{fill:#ef7c0f;stroke-width:1.00613px;}</style></defs><title>rabbit</title><g id="Layer_2" data-name="Layer 2"><g id="Layer_1-2" data-name="Layer 1"><polygon class="cls-1" points="301.053 359.565 301.053 359.565 85.053 359.565 85.053 143.565 301.053 359.565"/><polygon class="cls-2" points="463.354 204.882 463.354 204.882 310.619 357.617 157.884 204.882 463.354 204.882"/><polygon class="cls-3" points="77.075 472.858 77.075 472.858 0.707 396.491 77.075 320.123 77.075 472.858"/><polygon class="cls-4" points="356.929 77.075 356.929 77.075 433.296 0.707 509.664 77.075 356.929 77.075"/><rect class="cls-5" x="460.50169" y="100.52379" width="108" height="108" transform="translate(41.42924 409.0666) rotate(-45)"/><polygon class="cls-6" points="474.032 204.749 474.032 204.749 474.032 357.749 321.032 357.749 474.032 204.749"/><polygon class="cls-7" points="474.938 465.75 367.805 358.617 472.86 359.005 579.993 466.138 474.938 465.75"/></g></g></svg>