<svg xmlns="http://www.w3.org/2000/svg" viewBox="0 0 428.45055 537.21555"><defs><style>.cls-1{fill:#e53835;}.cls-1,.cls-2,.cls-3,.cls-4,.cls-5,.cls-6,.cls-7{stroke:#1d1d1b;stroke-miterlimit:10;}.cls-2{fill:#3c5fa9;}.cls-3{fill:#0597a7;}.cls-4{fill:#b55fa1;}.cls-5{fill:#fbc02d;}.cls-6{fill:#7cb340;}.cls-7{fill:#ef7c0f;stroke-width:1.00613px;}</style></defs><title>swan</title><g id="Layer_2" data-name="Layer 2"><g id="Layer_1-2" data-name="Layer 1"><polygon class="cls-1" points="427.243 317.164 427.243 317.164 274.508 469.899 121.773 317.164 427.243 317.164"/><polygon class="cls-2" points="335.894 536.716 335.894 536.716 119.894 536.716 119.894 320.716 335.894 536.716"/><polygon class="cls-3" points="32.93 239.295 32.93 239.295 109.298 315.662 32.93 392.03 32.93 239.295"/><polygon class="cls-4" points="109.207 1.207 109.207 1.207 109.207 109.207 1.207 109.207 109.207 1.207"/><rect class="cls-5" x="59.29786" y="182.29473" width="108" height="108" transform="translate(-133.90144 149.32281) rotate(-45)"/><polygon class="cls-6" points="114.298 534.037 114.298 534.037 6.111 425.85 114.298 317.662 114.298 534.037"/><polygon class="cls-7" points="114.298 153.251 114.298 1.742 188.308 76.302 188.308 227.811 114.298 153.251"/></g></g></svg>