<svg xmlns="http://www.w3.org/2000/svg" viewBox="0 0 491.81099 536.63491"><defs><style>.cls-1{fill:#e53835;}.cls-1,.cls-2,.cls-3,.cls-4,.cls-5,.cls-6,.cls-7{stroke:#1d1d1b;stroke-miterlimit:10;}.cls-2{fill:#3c5fa9;}.cls-3{fill:#0597a7;}.cls-4{fill:#b55fa1;}.cls-5{fill:#fbc02d;}.cls-6{fill:#7cb340;}.cls-7{fill:#ef7c0f;stroke-width:1.00613px;}</style></defs><title>turtle</title><g id="Layer_2" data-name="Layer 2"><g id="Layer_1-2" data-name="Layer 1"><polygon class="cls-1" points="116.065 158.169 116.065 158.169 332.065 158.169 332.065 374.169 116.065 158.169"/><polygon class="cls-2" points="329.031 377.051 329.031 377.051 113.031 377.051 113.031 161.051 329.031 377.051"/><polygon class="cls-3" points="337.869 378.72 337.869 378.72 414.236 302.353 490.604 378.72 337.869 378.72"/><polygon class="cls-4" points="332.065 535.428 332.065 535.428 255.697 459.06 332.065 382.693 332.065 535.428"/><rect class="cls-5" x="0.5" y="48.64487" width="108" height="108"/><polygon class="cls-6" points="145.261 149.645 145.261 149.645 179.824 0.6 328.869 35.164 145.261 149.645"/><polygon class="cls-7" points="107.872 266.012 0.739 373.145 1.128 268.09 108.261 160.957 107.872 266.012"/></g></g></svg>